<svg width="522" height="433" viewBox="0 0 522 433" fill="none" xmlns="http://www.w3.org/2000/svg">
<path opacity="0.5" d="M11.4232 432.879C-0.417087 386.978 -2.69927 339.134 4.71825 292.315C12.1358 245.496 29.0948 200.7 54.5431 160.707C79.9914 120.714 113.386 86.3763 152.656 59.825C191.925 33.2736 236.232 15.0746 282.826 6.35714C329.421 -2.36037 377.31 -1.41047 423.523 9.14797C469.735 19.7063 513.285 39.6479 551.471 67.7357C589.656 95.8234 621.663 131.458 645.506 172.429C669.348 213.4 684.517 258.833 690.072 305.909L611.27 315.208C606.989 278.928 595.298 243.914 576.924 212.339C558.549 180.764 533.883 153.301 504.454 131.655C475.026 110.009 441.463 94.6405 405.849 86.5035C370.234 78.3665 333.328 77.6344 297.419 84.3527C261.51 91.071 227.364 105.096 197.1 125.559C166.837 146.021 141.1 172.484 121.488 203.305C101.876 234.127 88.8061 268.649 83.0896 304.731C77.3732 340.813 79.132 377.685 88.257 413.06L11.4232 432.879Z" fill="#EEECF8"/>
</svg>
