<svg width="97" height="96" viewBox="0 0 97 96" fill="none" xmlns="http://www.w3.org/2000/svg">
<g opacity="0.85">
<circle cx="3" cy="3" r="3" fill="#B2B2B2"/>
<circle cx="16" cy="3" r="3" fill="#B2B2B2"/>
<circle cx="29" cy="3" r="3" fill="#B2B2B2"/>
<circle cx="42" cy="3" r="3" fill="#B2B2B2"/>
<circle cx="55" cy="3" r="3" fill="#B2B2B2"/>
<circle cx="68" cy="3" r="3" fill="#B2B2B2"/>
<circle cx="81" cy="3" r="3" fill="#B2B2B2"/>
<circle cx="94" cy="3" r="3" fill="#B2B2B2"/>
<circle cx="3" cy="21" r="3" fill="#B2B2B2"/>
<circle cx="16" cy="21" r="3" fill="#B2B2B2"/>
<circle cx="29" cy="21" r="3" fill="#B2B2B2"/>
<circle cx="42" cy="21" r="3" fill="#B2B2B2"/>
<circle cx="55" cy="21" r="3" fill="#B2B2B2"/>
<circle cx="68" cy="21" r="3" fill="#B2B2B2"/>
<circle cx="81" cy="21" r="3" fill="#B2B2B2"/>
<circle cx="94" cy="21" r="3" fill="#B2B2B2"/>
<circle cx="3" cy="39" r="3" fill="#B2B2B2"/>
<circle cx="16" cy="39" r="3" fill="#B2B2B2"/>
<circle cx="29" cy="39" r="3" fill="#B2B2B2"/>
<circle cx="42" cy="39" r="3" fill="#B2B2B2"/>
<circle cx="55" cy="39" r="3" fill="#B2B2B2"/>
<circle cx="68" cy="39" r="3" fill="#B2B2B2"/>
<circle cx="81" cy="39" r="3" fill="#B2B2B2"/>
<circle cx="94" cy="39" r="3" fill="#B2B2B2"/>
<circle cx="3" cy="57" r="3" fill="#B2B2B2"/>
<circle cx="16" cy="57" r="3" fill="#B2B2B2"/>
<circle cx="29" cy="57" r="3" fill="#B2B2B2"/>
<circle cx="42" cy="57" r="3" fill="#B2B2B2"/>
<circle cx="55" cy="57" r="3" fill="#B2B2B2"/>
<circle cx="68" cy="57" r="3" fill="#B2B2B2"/>
<circle cx="81" cy="57" r="3" fill="#B2B2B2"/>
<circle cx="94" cy="57" r="3" fill="#B2B2B2"/>
<circle cx="3" cy="75" r="3" fill="#B2B2B2"/>
<circle cx="16" cy="75" r="3" fill="#B2B2B2"/>
<circle cx="29" cy="75" r="3" fill="#B2B2B2"/>
<circle cx="42" cy="75" r="3" fill="#B2B2B2"/>
<circle cx="55" cy="75" r="3" fill="#B2B2B2"/>
<circle cx="68" cy="75" r="3" fill="#B2B2B2"/>
<circle cx="81" cy="75" r="3" fill="#B2B2B2"/>
<circle cx="94" cy="75" r="3" fill="#B2B2B2"/>
<circle cx="3" cy="93" r="3" fill="#B2B2B2"/>
<circle cx="16" cy="93" r="3" fill="#B2B2B2"/>
<circle cx="29" cy="93" r="3" fill="#B2B2B2"/>
<circle cx="42" cy="93" r="3" fill="#B2B2B2"/>
<circle cx="55" cy="93" r="3" fill="#B2B2B2"/>
<circle cx="68" cy="93" r="3" fill="#B2B2B2"/>
<circle cx="81" cy="93" r="3" fill="#B2B2B2"/>
<circle cx="94" cy="93" r="3" fill="#B2B2B2"/>
</g>
</svg>
