<svg width="48" height="48" viewBox="0 0 48 48" fill="none" xmlns="http://www.w3.org/2000/svg">
<rect x="2.25" y="2.25" width="43.5" height="43.5" rx="15.75" fill="#6200EE"/>
<rect x="2.25" y="2.25" width="43.5" height="43.5" rx="15.75" stroke="white" stroke-width="3.5"/>
<path d="M34.0149 35.3619C34.5777 35.758 35.533 35.7694 35.8742 35.7596C35.9386 35.7578 35.982 35.6962 35.963 35.6347C35.8227 35.1801 35.3186 33.5241 35.0658 32.383C34.8438 31.3806 34.8323 31.4422 34.5987 29.796C34.3652 28.1497 34.6403 27.1653 34.5404 25.4843C34.4674 24.2566 34.5707 23.5355 34.2484 22.3486C34.0505 21.6196 33.8992 21.1844 33.5478 20.5455C33.155 19.8314 33.0099 19.339 32.3217 18.9777C31.7706 18.6883 31.3615 18.6545 30.7453 18.7425C30.1518 18.8272 29.8477 18.9921 29.344 19.3696C28.3242 20.1341 27.4757 22.5054 27.4757 22.5054C27.4757 22.5054 27.384 19.863 27.1838 18.1937C27.0579 17.1445 27.0838 16.5069 26.7751 15.5284C26.5111 14.6916 25.8409 13.5685 25.8409 13.5685C25.8409 13.5685 25.0914 12.632 24.4981 12.3142C23.8571 11.971 22.7465 12.0006 22.7465 12.0006C22.7465 12.0006 21.1456 12.4793 20.2359 13.0198C19.3231 13.5621 18.134 14.7444 18.134 14.7444C18.134 14.7444 16.5687 16.5317 15.7402 17.8018C14.7616 19.3019 14.298 20.213 13.6383 21.8782C12.9588 23.5937 12.3539 26.4251 12.3539 26.4251C12.3539 26.4251 11.9587 28.5162 12.0036 29.8744C12.0374 30.9002 12.1005 31.4925 12.3539 32.4614C12.5565 33.2365 12.6525 33.7235 13.0545 34.3428C13.3751 34.8367 13.6074 35.0777 14.047 35.3619C14.4308 35.6101 14.5052 35.7539 15.098 35.7539H15.9573C16.3851 35.7539 16.805 35.6205 17.1306 35.343C17.2967 35.2014 17.4727 35.041 17.6086 34.8916C18.0203 34.4386 18.2557 34.1608 18.5427 33.5589C18.8464 32.9221 18.8981 32.4766 19.0682 31.7558C19.3491 30.5653 19.5353 28.6201 19.5353 28.6201C19.5353 28.6201 19.9302 24.6994 20.5862 22.3486C20.9477 21.0531 21.6955 19.1345 21.6955 19.1345C21.6955 19.1345 21.9854 21.4666 22.0459 22.9757C22.0936 24.168 22.1062 24.8419 22.0459 26.0331C21.9802 27.329 21.7889 28.0328 21.6955 29.3256C21.625 30.3026 21.5788 31.8342 21.5788 31.8342C21.5788 31.8342 21.6911 32.9294 21.9875 33.4805L22.3019 34.065C22.5935 34.6072 23.0176 35.0668 23.5347 35.4011C23.8425 35.6001 23.9943 35.7852 24.3229 35.9107C24.8492 36.1117 25.7241 35.9107 25.7241 35.9107C25.7241 35.9107 26.2919 35.6227 26.5999 35.3619C27.4819 34.6154 27.8844 32.6965 27.8844 32.6965L28.9937 29.796L31.2708 23.8381L31.8546 26.7386L32.3217 31.7558C32.3217 31.7558 32.559 33.5132 33.0807 34.3428C33.384 34.825 33.5986 35.0689 34.0149 35.3619Z" fill="white"/>
</svg>
