<svg width="44" height="44" viewBox="0 0 44 44" fill="none" xmlns="http://www.w3.org/2000/svg">
<rect x="2.25" y="2.25" width="39.5" height="39.5" rx="15.75" fill="#6200EE"/>
<rect x="2.25" y="2.25" width="39.5" height="39.5" rx="15.75" stroke="#5600D1" stroke-width="3.5"/>
<path d="M32.0149 33.3619C32.5777 33.758 33.533 33.7694 33.8742 33.7596C33.9386 33.7578 33.982 33.6962 33.963 33.6347C33.8227 33.1801 33.3186 31.5241 33.0658 30.383C32.8438 29.3806 32.8323 29.4422 32.5987 27.796C32.3652 26.1497 32.6403 25.1653 32.5404 23.4843C32.4674 22.2566 32.5707 21.5355 32.2484 20.3486C32.0505 19.6196 31.8992 19.1844 31.5478 18.5455C31.155 17.8314 31.0099 17.339 30.3217 16.9777C29.7706 16.6883 29.3615 16.6545 28.7453 16.7425C28.1518 16.8272 27.8477 16.9921 27.344 17.3696C26.3242 18.1341 25.4757 20.5054 25.4757 20.5054C25.4757 20.5054 25.384 17.863 25.1838 16.1937C25.0579 15.1445 25.0838 14.5069 24.7751 13.5284C24.5111 12.6916 23.8409 11.5685 23.8409 11.5685C23.8409 11.5685 23.0914 10.632 22.4981 10.3142C21.8571 9.97095 20.7465 10.0006 20.7465 10.0006C20.7465 10.0006 19.1456 10.4793 18.2359 11.0198C17.3231 11.5621 16.134 12.7444 16.134 12.7444C16.134 12.7444 14.5687 14.5317 13.7402 15.8018C12.7616 17.3019 12.298 18.213 11.6383 19.8782C10.9588 21.5937 10.3539 24.4251 10.3539 24.4251C10.3539 24.4251 9.95868 26.5162 10.0036 27.8744C10.0374 28.9002 10.1005 29.4925 10.3539 30.4614C10.5565 31.2365 10.6525 31.7235 11.0545 32.3428C11.3751 32.8367 11.6074 33.0777 12.047 33.3619C12.4308 33.6101 12.5052 33.7539 13.098 33.7539H13.9573C14.3851 33.7539 14.805 33.6205 15.1306 33.343C15.2967 33.2014 15.4727 33.041 15.6086 32.8916C16.0203 32.4386 16.2557 32.1608 16.5427 31.5589C16.8464 30.9221 16.8981 30.4766 17.0682 29.7558C17.3491 28.5653 17.5353 26.6201 17.5353 26.6201C17.5353 26.6201 17.9302 22.6994 18.5862 20.3486C18.9477 19.0531 19.6955 17.1345 19.6955 17.1345C19.6955 17.1345 19.9854 19.4666 20.0459 20.9757C20.0936 22.168 20.1062 22.8419 20.0459 24.0331C19.9802 25.329 19.7889 26.0328 19.6955 27.3256C19.625 28.3026 19.5788 29.8342 19.5788 29.8342C19.5788 29.8342 19.6911 30.9294 19.9875 31.4805L20.3019 32.065C20.5935 32.6072 21.0176 33.0668 21.5347 33.4011C21.8425 33.6001 21.9943 33.7852 22.3229 33.9107C22.8492 34.1117 23.7241 33.9107 23.7241 33.9107C23.7241 33.9107 24.2919 33.6227 24.5999 33.3619C25.4819 32.6154 25.8844 30.6965 25.8844 30.6965L26.9937 27.796L29.2708 21.8381L29.8546 24.7386L30.3217 29.7558C30.3217 29.7558 30.559 31.5132 31.0807 32.3428C31.384 32.825 31.5986 33.0689 32.0149 33.3619Z" fill="white"/>
</svg>
